<svg width="96" height="96" viewBox="0 0 96 96" fill="none" xmlns="http://www.w3.org/2000/svg">
<path d="M48 96C74.5097 96 96 74.5097 96 48C96 21.4903 74.5097 0 48 0C21.4903 0 0 21.4903 0 48C0 74.5097 21.4903 96 48 96Z" fill="#1D9BF0"/>
<path d="M72.3693 38.6257C72.4028 39.1106 72.4028 39.5954 72.4028 40.0848C72.4028 54.995 61.052 72.191 40.2966 72.191V72.1821C34.1653 72.191 28.1615 70.4348 23 67.1234C23.8915 67.2306 24.7875 67.2843 25.6858 67.2865C30.7668 67.291 35.7026 65.5861 39.7 62.4468C34.8714 62.3551 30.6372 59.2069 29.158 54.6107C30.8495 54.9369 32.5923 54.8699 34.2525 54.4163C28.9882 53.3527 25.2009 48.7275 25.2009 43.356C25.2009 43.3068 25.2009 43.2599 25.2009 43.213C26.7694 44.0866 28.5257 44.5715 30.3222 44.6251C25.364 41.3115 23.8357 34.7155 26.8298 29.5585C32.5588 36.608 41.0116 40.8936 50.0855 41.3472C49.1761 37.4281 50.4184 33.3212 53.35 30.5662C57.8948 26.294 65.0427 26.513 69.3148 31.0555C71.842 30.5573 74.2641 29.63 76.4806 28.3161C75.6382 30.9282 73.8753 33.1469 71.5202 34.5569C73.7569 34.2932 75.9421 33.6944 78 32.7805C76.4851 35.0507 74.5769 37.0281 72.3693 38.6257Z" fill="white"/>
</svg>
